<svg width="512" height="512" viewBox="0 0 512 512" fill="none" xmlns="http://www.w3.org/2000/svg">
  <defs>
    <path id="topArc" d="M 72 246 A 184 184 0 0 1 440 246" />
    <linearGradient id="badgeBg" x1="256" y1="40" x2="256" y2="472" gradientUnits="userSpaceOnUse">
      <stop offset="0" stop-color="#F8F6F0" />
      <stop offset="1" stop-color="#F3F0E8" />
    </linearGradient>
    <linearGradient id="fishAccent" x1="268" y1="250" x2="350" y2="314" gradientUnits="userSpaceOnUse">
      <stop offset="0" stop-color="#F74A3B" />
      <stop offset="1" stop-color="#B91F18" />
    </linearGradient>
    <linearGradient id="tealAccent" x1="154" y1="210" x2="204" y2="252" gradientUnits="userSpaceOnUse">
      <stop offset="0" stop-color="#29AFC0" />
      <stop offset="1" stop-color="#1C8D9D" />
    </linearGradient>
  </defs>

  <circle cx="256" cy="256" r="240" fill="url(#badgeBg)" stroke="#052335" stroke-width="12" />

  <text fill="#052335" font-family="Inter, Arial, sans-serif" font-size="34" font-weight="700" letter-spacing="8">
    <textPath href="#topArc" startOffset="50%" text-anchor="middle">CLARKII OUTDOORS CO</textPath>
  </text>

  <circle cx="86" cy="236" r="8" fill="#27A9BC" />
  <circle cx="426" cy="236" r="8" fill="#27A9BC" />

  <path
    d="M256 103L387 179C395 184 400 193 400 203V355C400 365 395 374 387 379L256 455C248 460 238 460 230 455L99 379C91 374 86 365 86 355V203C86 193 91 184 99 179L230 103C238 98 248 98 256 103Z"
    stroke="#052335"
    stroke-width="13"
    stroke-linejoin="round"
  />

  <path
    d="M172 220C205 181 270 164 333 182C353 188 371 198 388 212C362 205 334 212 307 228C282 243 259 262 229 280C204 295 180 320 171 360C155 335 149 308 152 284C155 261 162 239 172 220Z"
    fill="#052335"
  />
  <path
    d="M189 262C226 222 280 198 351 191C329 201 308 216 285 238C261 260 239 287 221 321C206 349 196 380 197 411C181 391 169 364 166 335C163 307 171 282 189 262Z"
    fill="#052335"
  />
  <path
    d="M279 274C305 262 333 254 363 250C348 267 333 284 314 300C299 313 284 323 267 332C273 314 277 294 279 274Z"
    fill="url(#fishAccent)"
  />
  <path
    d="M152 224C170 210 191 201 216 198C202 208 188 223 175 244C169 232 162 225 152 224Z"
    fill="url(#tealAccent)"
  />
  <path
    d="M320 201C346 185 371 184 394 194C379 196 364 205 349 220C359 218 368 218 377 220C360 241 341 255 320 259C306 261 293 258 281 251C288 230 301 214 320 201Z"
    fill="#052335"
  />
  <circle cx="340" cy="200" r="9" fill="#052335" />
  <path
    d="M208 405C227 387 253 378 286 380C267 390 248 404 232 420C220 432 212 444 208 455C190 442 180 426 179 409C178 399 181 389 188 379C191 390 197 399 208 405Z"
    fill="#052335"
  />
</svg>
